<?xml version="1.0" encoding="utf-8"?>
<!-- Generator: Adobe Illustrator 27.5.0, SVG Export Plug-In . SVG Version: 6.00 Build 0)  -->
<svg version="1.1" xmlns="http://www.w3.org/2000/svg" xmlns:xlink="http://www.w3.org/1999/xlink" x="0px" y="0px"
	 viewBox="0 0 500 500" style="enable-background:new 0 0 500 500;" xml:space="preserve">
<g id="Background">
	<g>
		<g>
			<rect y="39" style="fill:#DFE7EB;" width="500" height="421.333"/>
			<rect y="447.18" style="fill:#FFFFFF;" width="500" height="8"/>
			<rect y="455" style="fill:#696660;" width="500" height="45"/>
			<rect style="fill:#EBEBEB;" width="500" height="47"/>
			<rect x="39.667" y="43" style="fill:#FFFFFF;" width="5.333" height="407.64"/>
			<rect x="451.001" y="43" style="fill:#FFFFFF;" width="5.333" height="407.64"/>
		</g>
		<rect y="39" style="fill:#FFFFFF;" width="500" height="8"/>
	</g>
</g>
<g id="Objects">
	<g>
		<rect x="223.528" y="286.898" style="fill:#FFFFFF;" width="1.201" height="20.7"/>
		<path style="fill:#FFFFFF;" d="M228.828,307.599c0,0.637-2.105,1.151-4.699,1.151c-2.595,0-4.7-0.515-4.7-1.151
			c0-0.635,2.105-1.149,4.7-1.149C226.723,306.449,228.828,306.964,228.828,307.599z"/>
		<path style="fill:#FFFFFF;" d="M231.481,278.659c0,8.305-3.288,15.048-7.345,15.048c-4.055,0-7.369-6.743-7.369-15.048
			c0-1.057,0.049-2.065,0.144-3.05c0.024-0.096,0.024-0.169,0.048-0.238c0.745-0.289,3.695-0.504,7.177-0.504
			c3.48,0,6.408,0.215,7.153,0.504c0.024,0.069,0.024,0.143,0.048,0.238C231.432,276.595,231.481,277.603,231.481,278.659z"/>
		<path style="fill:#8A3445;" d="M229.814,283.604c0,0.061,0,0.122-0.025,0.184c-0.979,5.301-3.415,8.692-5.656,8.692
			c-2.241,0-4.676-3.379-5.668-8.668h-0.012c-0.013-0.073-0.024-0.147-0.037-0.22c0.477-0.282,2.841-0.502,5.681-0.502
			C227.023,283.091,229.423,283.31,229.814,283.604z"/>
		<path style="fill:#FFFFFF;" d="M231.373,275.491c0,0.046-0.048,0.071-0.143,0.118c-0.686,0.311-3.591,0.504-7.088,0.504
			c-3.495,0-6.426-0.192-7.112-0.504c-0.094-0.047-0.143-0.072-0.143-0.118c0-0.051,0.072-0.098,0.19-0.12
			c0.733-0.289,3.638-0.504,7.065-0.504c3.426,0,6.308,0.215,7.041,0.504C231.301,275.394,231.373,275.44,231.373,275.491z"/>
		<path style="fill:#8A3445;" d="M229.875,283.69c0,0.037-0.024,0.074-0.085,0.099c-0.477,0.282-2.84,0.502-5.692,0.502
			c-2.754,0-5.068-0.208-5.631-0.478h-0.012c-0.086-0.037-0.123-0.086-0.123-0.123c0-0.035,0.025-0.072,0.086-0.097
			c0.477-0.282,2.841-0.502,5.681-0.502c2.926,0,5.325,0.22,5.717,0.514C229.851,283.642,229.875,283.666,229.875,283.69z"/>
	</g>
	<g>
		<linearGradient id="SVGID_1_" gradientUnits="userSpaceOnUse" x1="251.0849" y1="114.5132" x2="251.0849" y2="340.5176">
			<stop  offset="0" style="stop-color:#FFFFFF"/>
			<stop  offset="1" style="stop-color:#FFFFFF;stop-opacity:0"/>
		</linearGradient>
		<polygon style="fill:url(#SVGID_1_);" points="405.08,340.518 97.09,340.518 174.089,144.713 181.859,124.954 185.966,114.513 
			316.204,114.513 320.537,125.537 328.08,144.713 		"/>
		<rect x="181.859" y="114.513" style="fill:#FFFFFF;" width="139.913" height="11.023"/>
		<rect x="233.884" y="83.774" style="fill:#FFFFFF;" width="35.979" height="6.38"/>
		<rect x="250.138" style="fill:#FFFFFF;" width="3.356" height="83.774"/>
		<polyline style="fill:#FFFFFF;" points="181.859,114.513 233.884,90.155 236.002,90.155 184.669,114.372 		"/>
		<polyline style="fill:#FFFFFF;" points="321.772,114.513 269.748,90.155 267.629,90.155 318.962,114.372 		"/>
		<path style="fill:#FFFFFF;" d="M198.155,123.686c0,2.303-1.866,4.169-4.169,4.169c-2.302,0-4.169-1.866-4.169-4.169
			c0-2.302,1.867-4.169,4.169-4.169C196.289,119.517,198.155,121.384,198.155,123.686z"/>
		<path style="fill:#FFFFFF;" d="M256.042,123.686c0,2.303-1.866,4.169-4.169,4.169c-2.302,0-4.169-1.866-4.169-4.169
			c0-2.302,1.867-4.169,4.169-4.169C254.176,119.517,256.042,121.384,256.042,123.686z"/>
		<path style="fill:#FFFFFF;" d="M312.169,123.686c0,2.303-1.866,4.169-4.169,4.169s-4.169-1.866-4.169-4.169
			c0-2.302,1.866-4.169,4.169-4.169S312.169,121.384,312.169,123.686z"/>
		<rect x="233.884" y="82.5" style="fill:#F5F5F5;" width="35.979" height="1.274"/>
		<rect x="181.859" y="114.513" style="fill:#F5F5F5;" width="139.913" height="2.653"/>
	</g>
	<g>
		<polygon style="fill:#8A7176;" points="393.523,374.199 403.618,455.442 398.57,455.442 378.945,374.199 		"/>
		<polygon style="fill:#8A7176;" points="304.925,374.199 297.075,455.442 300.999,455.442 317.822,374.199 		"/>
		<path style="fill:#8A3445;" d="M299.598,366.896c0,5.881,4.396,10.65,9.813,10.65h74.299c5.421,0,9.813-4.77,9.813-10.65l0,0
			c0-5.881-4.392-10.649-9.813-10.649h-74.299C303.993,356.246,299.598,361.015,299.598,366.896L299.598,366.896z"/>
		<path style="fill:#8A3445;" d="M369.132,377.546c0,0,15.047-111.976,29.438-114.816h5.048l-10.095,114.816H369.132z"/>
	</g>
	<g>
		<polygon style="fill:#8A7176;" points="100.67,374.199 90.577,455.442 95.623,455.442 115.25,374.199 		"/>
		<polygon style="fill:#8A7176;" points="189.27,374.199 197.12,455.442 193.194,455.442 176.372,374.199 		"/>
		<path style="fill:#8A3445;" d="M194.597,366.896c0,5.881-4.394,10.65-9.814,10.65h-74.3c-5.419,0-9.813-4.77-9.813-10.65l0,0
			c0-5.881,4.394-10.649,9.813-10.649h74.3C190.203,356.246,194.597,361.015,194.597,366.896L194.597,366.896z"/>
		<path style="fill:#8A3445;" d="M125.063,377.546c0,0-15.049-111.976-29.44-114.816h-5.047l10.094,114.816H125.063z"/>
	</g>
	<g>
		<rect x="235.578" y="312.825" style="fill:#8A7176;" width="25.419" height="142.617"/>
		<rect x="160.572" y="307.404" style="fill:#8A3445;" width="174.956" height="12.733"/>
	</g>
	<g>
		<g>
			<polygon style="fill:#ECD5B8;" points="187.554,272.34 191.141,280.818 205.648,273.897 204.063,263.778 192.068,269.587 
				191.426,270.456 			"/>
			<path style="fill:#ECD5B8;" d="M191.695,270.103l6.603-7.475l6.269-4.303c0,0,0.768,1.03-0.837,2.446
				c-1.606,1.415-2.884,5.391-2.884,5.391L191.695,270.103z"/>
			<path style="fill:#ECD5B8;" d="M204.063,263.778l11.246-4.858c0.832-0.358,1.73,0.003,1.844,0.744l0.201,3.56
				c0.101,0.66-0.218,1.37-0.843,1.862l-10.862,8.811L204.063,263.778z"/>
		</g>
		<polygon style="fill:#3A4D57;" points="143.348,288.485 190.254,269.57 194.747,280.549 156.794,300.871 		"/>
		<path style="fill:#ECD5B8;" d="M225.631,305.985c-0.096-0.358-0.295-0.675-0.582-0.922l-12.057-6.332
			c-0.757-0.668-1.796-0.912-2.769-0.652l-6.858,0.977l-8.33-0.213l-4.995,6.814c0,0,12.582,2.676,13.233,2.501l9.166-0.747
			l10.479,0.7c0.839,0.461,1.885,0.205,2.441-0.581C225.676,307.065,225.766,306.494,225.631,305.985z"/>
		<path style="fill:#2B2A27;" d="M220.573,442.592l-0.108,10.323c-0.017,1.5,1.193,2.746,2.705,2.762l35.495,0.298
			c2.575,0.027,3.286-4.717,0.766-5.263c-14.461-3.138-18.445-7.906-24.671-7.971L220.573,442.592z"/>
		<path style="fill:#1D333A;" d="M217.824,345.314c3.639,1.042,6.03,4.515,5.695,8.295l12.124,89.442l-15.001-0.022l-8.581-79.659
			c0,0-19.267-2.826-33.105-3.166c-16.755-0.411-35.74-2.343-37.265-13.832l15.388-16.706L217.824,345.314z"/>
		<path style="fill:#ECD5B8;" d="M130.773,227.445l15.389,12.165l-1.762,9.405l-17.014-9.457l-0.012-0.004
			c1.086-2.641,1.8-4.34,1.8-4.34S129.912,228.227,130.773,227.445z"/>
		<path style="fill:#ECD5B8;" d="M132.404,219.274c-2.768,10.245-1.234,14.679,13.626,21.08c7.29,3.138,10.135-0.223,12.996-8.577
			c0.254-0.74,3.807-0.656,3.89-1.517c0.104-1.071-2.169-5.259-2.221-7.9c-0.163-8.171-1.88-15.852-8.18-17.554
			C144.176,202.553,135.172,209.029,132.404,219.274z"/>
		<path style="fill:#4E5B65;" d="M124.71,246.282l28.541,18.092l-8.851-15.358l-17.014-9.457l-0.012-0.004
			C126.629,241.418,125.699,243.742,124.71,246.282z"/>
		<path style="fill:#ECD5B8;" d="M143.359,198.299c-0.742,0.09-1.458,0.243-2.159,0.474c2.623-0.337,4.973-0.282,7.077,0.088
			C146.684,198.315,145.035,198.113,143.359,198.299z"/>
		<path style="fill:#966F4D;" d="M134.913,197.003c0.01,0.003,5.397-1.187,5.409-1.184c2.618-0.339,4.972-0.285,7.075,0.088
			c15.98,2.83,18.375,9.613,18.375,9.613s-2.566,9.403-5.882,8.746c-4.903-0.973-6.431-3.02-6.431-3.02s1.081,4.273-6.176,5.177
			c-2.182,0.27-2.728,5.873-3.005,7.458l-2.597-0.693c-0.51-2.85-2.544-6.702-4.566-4.928c-3.313,2.91,0.65,9.051,0.65,9.051
			c-1.083-0.152-3.612,3.742-5.019,4.743c-2.178,1.535-3.571,3.162-3.571,3.162s0.004-5.85-1.681-11.77
			C124.796,213.964,121.487,202.079,134.913,197.003z"/>
		<path style="fill:#363430;" d="M206.451,442.592l-0.109,10.323c-0.016,1.5,1.193,2.746,2.704,2.762l35.498,0.298
			c2.573,0.027,3.283-4.717,0.765-5.263c-14.461-3.138-18.445-7.906-24.671-7.971L206.451,442.592z"/>
		<path style="fill:#243F4A;" d="M211.557,345.466c3.639,1.043,6.03,4.516,5.695,8.296l10.252,89.298l-20.986-0.03l-8.58-79.659
			c0,0-19.267-2.826-33.105-3.166c-16.755-0.411-35.74-2.343-37.264-13.832l29.51-16.706L211.557,345.466z"/>
		<path style="fill:#44545E;" d="M124.71,246.282l28.541,18.092l2.174,4.267c1.329,2.607,2.209,5.416,2.605,8.313l2.421,19.04
			l-0.907-0.245l-20.396-26.994c-2.845-3.761-8.181-4.54-11.983-1.751c-1.638,1.203-2.725,2.87-3.216,4.685
			c-0.728,2.694-0.14,5.705,1.87,7.977l24.724,27.932l9.286,2.509l-0.251,20.286l-32.642,16.322c-0.022-0.012,0.025,0.011,0,0
			c-2.697-11.688-3.706-21.575-5.582-35.98c-2.791-21.434-5.03-35.434-3.994-41.531C119.665,255.626,121.385,254.768,124.71,246.282
			z"/>
		<polygon style="fill:#E7E3D6;" points="126.189,242.523 127.393,237.82 145.096,245.627 143.901,253.028 		"/>
		<path style="fill:#4E5B65;" d="M127.998,263.577c5.12-3.392,11.051-0.418,13.898,3.344l17.647,28.827l42.919,2.954l-1.699,9.637
			l-40.936,1.766l-9.286-2.509l-24.724-27.932c-2.009-2.271-3.212-5.401-2.749-8.152C123.499,268.946,124.2,266.094,127.998,263.577
			z"/>
	</g>
	<g>
		<path style="fill:#3C5F42;" d="M255.391,261.597l-4.74-4.709l-4.74,4.709c-1.439,1.43-2.605,4.232-2.605,6.261v39.547h14.69
			v-39.547C257.996,265.829,256.829,263.026,255.391,261.597z"/>
		<rect x="248.05" y="244.492" style="fill:#3C5F42;" width="5.202" height="22.81"/>
		<path style="fill:#3C5F42;" d="M253.763,244.594c0,0.367-0.297,0.663-0.663,0.663h-4.846c-0.367,0-0.664-0.296-0.664-0.663l0,0
			c0-0.367,0.297-0.663,0.664-0.663h4.846C253.466,243.931,253.763,244.227,253.763,244.594L253.763,244.594z"/>
		<rect x="243.306" y="274.867" style="fill:#FFFFFF;" width="14.69" height="20.888"/>
	</g>
	<g>
		<rect x="297.185" y="251.586" style="fill:#FFFFFF;" width="1.2" height="20.701"/>
		<path style="fill:#FFFFFF;" d="M302.485,272.287c0,0.636-2.105,1.151-4.7,1.151c-2.594,0-4.699-0.516-4.699-1.151
			c0-0.635,2.105-1.15,4.699-1.15C300.38,271.137,302.485,271.652,302.485,272.287z"/>
		<path style="fill:#FFFFFF;" d="M305.138,243.347c0,8.306-3.287,15.048-7.345,15.048c-4.056,0-7.369-6.742-7.369-15.048
			c0-1.057,0.049-2.064,0.145-3.05c0.023-0.096,0.023-0.168,0.048-0.237c0.744-0.29,3.695-0.505,7.177-0.505
			c3.479,0,6.408,0.215,7.152,0.505c0.024,0.069,0.024,0.142,0.048,0.237C305.089,241.282,305.138,242.29,305.138,243.347z"/>
		<path style="fill:#8A3445;" d="M303.733,246.547c0,0.063,0,0.11-0.025,0.173c-0.722,6.304-3.439,10.454-5.913,10.454
			c-2.497,0-5.227-4.175-5.949-10.504c-0.013-0.024-0.013-0.049-0.013-0.073c0.306-0.184,2.878-0.318,6.023-0.318
			C300.696,246.278,303.084,246.389,303.733,246.547z"/>
		<path style="fill:#FFFFFF;" d="M305.138,240.179c0,0.047-0.049,0.071-0.145,0.118c-0.696,0.313-3.647,0.505-7.2,0.505
			c-3.551,0-6.527-0.192-7.225-0.505c-0.096-0.047-0.145-0.071-0.145-0.118c0-0.05,0.072-0.097,0.192-0.119
			c0.744-0.29,3.695-0.505,7.177-0.505c3.479,0,6.408,0.215,7.152,0.505C305.065,240.082,305.138,240.129,305.138,240.179z"/>
		<path style="fill:#8A3445;" d="M303.916,246.634c0,0.036-0.072,0.061-0.208,0.086c-0.685,0.146-3.049,0.257-5.852,0.257
			c-3.085,0-5.631-0.136-6.011-0.307c-0.036-0.013-0.049-0.024-0.049-0.036c0-0.013,0.013-0.024,0.036-0.037
			c0.306-0.184,2.878-0.318,6.023-0.318c2.84,0,5.228,0.11,5.877,0.269C303.855,246.572,303.916,246.609,303.916,246.634z"/>
	</g>
	<g>
		<g>
			<polygon style="fill:#ECD5B8;" points="335.348,298.467 308.671,270.267 306.345,274.721 327.289,303.982 			"/>
			<path style="fill:#AF9071;" d="M325.099,300.923l6.051-6.896l4.349,3.448l11.631-16.708l8.517,5.614l-9.992,17.601
				C345.653,303.982,332.439,312.729,325.099,300.923z"/>
			<path style="fill:#ECD5B8;" d="M278.755,309.314c0.006-0.244,0.084-0.479,0.229-0.681l6.72-5.937
				c0.382-0.547,1.007-0.865,1.67-0.852l4.54-0.448l6.985-0.474l4.248,3.889c0,0-9.307,2.402-9.75,2.395l-5.979,0.954l-6.595,2.09
				c-0.464,0.424-1.174,0.424-1.652,0.009C278.896,310.011,278.748,309.66,278.755,309.314z"/>
			<path style="fill:#ECD5B8;" d="M281.051,345.314c-3.64,1.042-6.03,4.515-5.695,8.295l-2.469,89.442l5.345-0.022l16.424-79.659
				c0,0,11.424-2.826,25.262-3.166c16.756-0.411,35.74-2.343,37.265-13.832l-15.388-16.706L281.051,345.314z"/>
			<path style="fill:#ECD5B8;" d="M365.919,232.769l-11.833,7.311l1.56,11.568l13.459-7.482l0.011-0.004
				c-1.021-2.484-1.692-4.083-1.692-4.083S366.729,233.505,365.919,232.769z"/>
			<path style="fill:#ECD5B8;" d="M369.813,225.85c1.105,9.923-0.992,12.944-15.728,16.766c-7.227,1.875-9.355-0.775-10.819-8.953
				c-0.13-0.726-3.538-2.267-3.098-2.949c1.584-2.447,2.471-3.599,2.896-6.046c1.322-7.576,4.021-14.471,10.122-15.151
				C361.263,208.617,368.708,215.929,369.813,225.85z"/>
			<path style="fill:#ECD5B8;" d="M371.621,250.491l-26.851,17.02l10.875-15.864l13.459-7.482l0.011-0.004
				C369.817,245.916,370.692,248.102,371.621,250.491z"/>
			<path style="fill:#ECD5B8;" d="M362.632,204.778c0.677,0.191,1.32,0.435,1.939,0.749c-2.392-0.688-4.584-0.974-6.594-0.931
				C359.537,204.316,361.1,204.366,362.632,204.778z"/>
			<path style="fill:#473421;" d="M370.671,204.783c-0.01,0.001-4.848-1.877-4.86-1.875c-2.386-0.69-4.582-0.977-6.592-0.932
				c-15.264,0.342-13.412,13.512-13.412,13.512s3.77-2.865,5.579-0.117c1.042,1.582-1.619,3.817,5,5.698
				c1.99,0.563,0.461,5.648,4.24,7.092l0,0c0.884-2.578,3.327-5.867,4.952-3.929c2.663,3.182-1.9,8.324-1.9,8.324
				c1.026,0.014,1.168,5.047,2.334,6.178c1.806,1.74,5.354-3.037,7.77-8.301C377.646,222.004,382.428,211.426,370.671,204.783z"/>
			<path style="fill:#ECD5B8;" d="M371.31,346.37c0,0.013,0,0.013,0,0.025c-1.555,11.471-20.53,13.392-37.265,13.808
				c-8.423,0.209-18.841,1.336-25.721,2.191c-4.432,0.539-7.395,0.98-7.395,0.98l-8.569,79.659l-6.519,1.023l-4.219-90.293
				c-0.33-3.783,2.058-7.26,5.693-8.3l7.64-2.217l44.341-12.853l2.497-0.723L371.31,346.37z"/>
			<path style="fill:#C29F7D;" d="M371.621,250.491l-26.851,17.02l-2.046,4.015c-1.249,2.452-2.078,5.096-2.45,7.82l6.135,24.655
				l5.046-0.499l6.584-31.87c2.677-3.537,7.696-4.272,11.274-1.647c1.541,1.132,2.563,2.701,3.026,4.408
				c0.684,2.534,0.13,5.368-1.76,7.504l-23.262,26.279l0,0l-8.021,22.218l32.013,16.001c0.021-0.012-0.024,0.011,0,0
				c2.536-10.996-2.844-22.307-1.079-35.859c2.627-20.166,7.055-31.481,6.701-38.887
				C376.547,263.588,374.751,258.475,371.621,250.491z"/>
			<path style="fill:#AF9071;" d="M371.31,346.396c-1.555,11.471-20.53,13.392-37.265,13.808
				c-8.423,0.209-18.841,1.336-25.721,2.191l-13.368-19.147l-0.895-1.285l45.235-11.568L371.31,346.396z"/>
			<path style="fill:#473421;" d="M383.697,211.733c0,6.175-4.857,19.221-10.582,19.221c-5.725,0-12.094-19.251-12.094-25.427
				c0-6.175,7.89-7.477,13.39-5.887C378.754,200.895,383.697,205.559,383.697,211.733z"/>
			<polygon style="fill:#ECD5B8;" points="336.276,300.923 297.459,300.923 299.097,305.674 334.748,310.57 			"/>
			<path style="fill:#AF9071;" d="M368.528,266.764c-4.815-3.191-10.397-0.395-13.075,3.146l-8.897,29.219l-13.207,0.908
				l-0.75,12.008l13.69,0.591c0,0,5.503-0.966,7.07-1.91c7.827-4.716,17.765-28.374,17.765-28.374
				c1.583-3.647,2.477-5.534,2.042-8.122C372.762,271.815,372.102,269.131,368.528,266.764z"/>
			<path style="fill:#ECD5B8;" d="M309.375,271.011l-0.704-0.744l-4.266-4.616l-4.642-0.899l-9.252,5.362
				c0,0-0.396,1.26,0.505,1.584c0.899,0.324,1.115,0.648,1.115,0.648l7.425-1.08l6.788,3.455"/>
			<path style="fill:#ECD5B8;" d="M266.598,449.69l7.212-13.705l6.14-1.286C279.949,434.699,272.199,451.16,266.598,449.69z"/>
			<path style="fill:#ECD5B8;" d="M277.978,450.185l7.85-13.35l6.193-0.995C292.021,435.84,283.504,451.917,277.978,450.185z"/>
			<path style="fill:#AF9071;" d="M280.693,449.298l12.164-13.283c0,0,0.901-0.451,1.568,2.124c0.669,2.575-1.048,9.589-1.048,9.589
				l-0.763,7.578h-1.813c0,0,0.668-6.581-0.954-6.962c-1.621-0.382-5.532,7.248-5.532,7.248l-14.114-0.286
				C270.202,455.306,265.338,454.447,280.693,449.298z"/>
		</g>
		<path style="fill:#AF9071;" d="M267.754,449.298l12.164-13.283c0,0,0.902-0.451,1.569,2.124c0.668,2.575-1.049,9.589-1.049,9.589
			l-0.763,7.578h-1.813c0,0,0.667-6.581-0.954-6.962c-1.621-0.382-5.531,7.248-5.531,7.248l-14.116-0.286
			C257.262,455.306,252.398,454.447,267.754,449.298z"/>
	</g>
</g>
<g id="Designed_by_Freepik">
	<g>
		<g>
			<path style="fill:#FFFFFF;" d="M176.371,480.576v-0.162c-0.219,0.25-0.436,0.456-0.648,0.61
				c-0.213,0.158-0.444,0.279-0.694,0.359c-0.249,0.084-0.52,0.124-0.815,0.124c-0.391,0-0.753-0.082-1.085-0.248
				c-0.333-0.166-0.621-0.401-0.864-0.709c-0.244-0.306-0.428-0.666-0.553-1.082c-0.126-0.414-0.188-0.863-0.188-1.345
				c0-1.021,0.25-1.815,0.748-2.386c0.498-0.569,1.154-0.855,1.967-0.855c0.47,0,0.867,0.082,1.19,0.242
				c0.323,0.162,0.638,0.41,0.944,0.744v-2.409c0-0.334,0.066-0.586,0.2-0.76c0.134-0.17,0.324-0.256,0.571-0.256
				c0.247,0,0.437,0.078,0.571,0.236c0.133,0.159,0.2,0.39,0.2,0.697v7.198c0,0.31-0.071,0.542-0.215,0.698
				c-0.144,0.155-0.329,0.233-0.556,0.233c-0.223,0-0.407-0.08-0.553-0.241C176.443,481.104,176.371,480.874,176.371,480.576z
				 M173.161,478.178c0,0.443,0.069,0.819,0.206,1.131c0.138,0.311,0.326,0.544,0.565,0.702c0.239,0.156,0.5,0.236,0.783,0.236
				c0.287,0,0.549-0.074,0.787-0.225c0.237-0.15,0.426-0.378,0.567-0.688c0.142-0.31,0.212-0.695,0.212-1.157
				c0-0.436-0.07-0.81-0.212-1.122c-0.141-0.312-0.332-0.551-0.574-0.717c-0.242-0.164-0.505-0.248-0.792-0.248
				c-0.299,0-0.566,0.086-0.801,0.254c-0.235,0.17-0.417,0.413-0.547,0.729C173.225,477.392,173.161,477.76,173.161,478.178z"/>
			<path style="fill:#FFFFFF;" d="M183.568,478.59h-3.191c0.004,0.371,0.078,0.699,0.224,0.981c0.145,0.283,0.339,0.497,0.58,0.638
				c0.241,0.145,0.507,0.216,0.798,0.216c0.195,0,0.374-0.021,0.535-0.066c0.162-0.048,0.318-0.118,0.47-0.218
				c0.152-0.096,0.292-0.2,0.419-0.314c0.127-0.11,0.292-0.263,0.496-0.454c0.084-0.07,0.204-0.108,0.359-0.108
				c0.167,0,0.302,0.047,0.406,0.139s0.156,0.22,0.156,0.39c0,0.147-0.058,0.317-0.174,0.516c-0.116,0.198-0.29,0.388-0.523,0.567
				c-0.234,0.183-0.526,0.332-0.879,0.452c-0.352,0.12-0.758,0.18-1.216,0.18c-1.048,0-1.864-0.3-2.445-0.897
				c-0.582-0.598-0.873-1.409-0.873-2.433c0-0.483,0.071-0.93,0.215-1.342c0.144-0.413,0.353-0.766,0.628-1.061
				c0.275-0.294,0.614-0.522,1.017-0.678c0.403-0.159,0.849-0.237,1.339-0.237c0.637,0,1.185,0.134,1.64,0.403
				c0.458,0.269,0.8,0.618,1.026,1.042c0.227,0.428,0.341,0.863,0.341,1.305c0,0.412-0.118,0.678-0.353,0.8
				C184.327,478.529,183.995,478.59,183.568,478.59z M180.376,477.664h2.959c-0.039-0.558-0.19-0.976-0.451-1.252
				c-0.261-0.279-0.604-0.417-1.031-0.417c-0.407,0-0.741,0.142-1.001,0.421C180.59,476.698,180.433,477.112,180.376,477.664z"/>
			<path style="fill:#FFFFFF;" d="M191.005,479.373c0,0.45-0.108,0.836-0.329,1.157c-0.219,0.32-0.543,0.564-0.971,0.729
				c-0.429,0.166-0.95,0.248-1.564,0.248c-0.585,0-1.088-0.09-1.506-0.27c-0.418-0.18-0.728-0.402-0.927-0.672
				s-0.298-0.538-0.298-0.811c0-0.18,0.063-0.332,0.191-0.46c0.127-0.126,0.289-0.189,0.484-0.189c0.171,0,0.302,0.042,0.393,0.124
				c0.093,0.084,0.181,0.203,0.264,0.352c0.167,0.294,0.368,0.508,0.601,0.653c0.234,0.143,0.551,0.216,0.954,0.216
				c0.327,0,0.595-0.075,0.804-0.22c0.209-0.146,0.313-0.312,0.313-0.498c0-0.289-0.108-0.495-0.325-0.627
				c-0.218-0.132-0.576-0.26-1.074-0.378c-0.562-0.139-1.019-0.286-1.372-0.44c-0.354-0.151-0.635-0.355-0.847-0.605
				c-0.211-0.25-0.317-0.562-0.317-0.928c0-0.325,0.098-0.634,0.293-0.927c0.195-0.29,0.484-0.522,0.865-0.696
				c0.38-0.172,0.838-0.26,1.377-0.26c0.423,0,0.803,0.044,1.139,0.134c0.337,0.086,0.619,0.204,0.843,0.352
				c0.226,0.146,0.397,0.311,0.514,0.49c0.118,0.18,0.176,0.353,0.176,0.525c0,0.186-0.063,0.342-0.188,0.462
				c-0.125,0.116-0.304,0.18-0.536,0.18c-0.167,0-0.31-0.048-0.426-0.146c-0.118-0.096-0.252-0.238-0.404-0.43
				c-0.124-0.16-0.269-0.288-0.436-0.384c-0.167-0.096-0.394-0.144-0.682-0.144c-0.295,0-0.54,0.064-0.735,0.189
				c-0.196,0.126-0.293,0.28-0.293,0.468c0,0.172,0.071,0.313,0.214,0.422c0.145,0.11,0.337,0.202,0.581,0.273
				c0.243,0.07,0.577,0.158,1.004,0.261c0.505,0.125,0.919,0.271,1.24,0.443c0.32,0.17,0.564,0.374,0.73,0.607
				C190.923,478.808,191.005,479.075,191.005,479.373z"/>
			<path style="fill:#FFFFFF;" d="M192.673,474.113c-0.227,0-0.422-0.071-0.583-0.21c-0.162-0.14-0.242-0.336-0.242-0.592
				c0-0.231,0.083-0.421,0.248-0.571c0.166-0.148,0.358-0.226,0.578-0.226c0.212,0,0.398,0.069,0.562,0.205
				c0.163,0.135,0.245,0.332,0.245,0.592c0,0.252-0.081,0.446-0.24,0.588C193.081,474.04,192.892,474.113,192.673,474.113z
				 M193.48,475.797v4.718c0,0.326-0.078,0.575-0.233,0.741c-0.156,0.168-0.353,0.252-0.592,0.252c-0.239,0-0.434-0.086-0.583-0.258
				c-0.15-0.17-0.224-0.416-0.224-0.735v-4.668c0-0.322,0.074-0.567,0.224-0.73c0.149-0.164,0.344-0.246,0.583-0.246
				c0.24,0,0.436,0.082,0.592,0.246C193.402,475.279,193.48,475.509,193.48,475.797z"/>
			<path style="fill:#FFFFFF;" d="M200.63,476.066v4.74c0,0.543-0.058,1.011-0.174,1.401c-0.115,0.39-0.301,0.713-0.556,0.969
				c-0.255,0.254-0.589,0.444-1.001,0.566c-0.412,0.124-0.926,0.186-1.539,0.186c-0.562,0-1.064-0.078-1.508-0.235
				c-0.441-0.158-0.782-0.362-1.021-0.61c-0.239-0.248-0.359-0.504-0.359-0.768c0-0.199,0.067-0.363,0.204-0.487
				c0.135-0.126,0.299-0.189,0.49-0.189c0.239,0,0.449,0.105,0.628,0.316c0.087,0.107,0.178,0.216,0.271,0.325
				c0.094,0.11,0.198,0.204,0.312,0.282c0.113,0.078,0.249,0.136,0.409,0.174c0.159,0.036,0.343,0.056,0.55,0.056
				c0.423,0,0.751-0.06,0.983-0.176c0.233-0.118,0.397-0.283,0.49-0.495c0.094-0.21,0.148-0.435,0.165-0.678
				c0.016-0.24,0.027-0.628,0.036-1.162c-0.251,0.351-0.542,0.618-0.871,0.802c-0.329,0.183-0.72,0.274-1.174,0.274
				c-0.545,0-1.023-0.139-1.432-0.42c-0.408-0.278-0.723-0.668-0.941-1.17c-0.22-0.504-0.329-1.083-0.329-1.739
				c0-0.491,0.066-0.934,0.201-1.327c0.134-0.397,0.324-0.727,0.57-1.001c0.247-0.269,0.532-0.473,0.855-0.61
				c0.323-0.14,0.677-0.208,1.064-0.208c0.462,0,0.863,0.09,1.202,0.265c0.338,0.18,0.653,0.457,0.945,0.837v-0.222
				c0-0.282,0.069-0.502,0.208-0.659c0.14-0.154,0.32-0.232,0.539-0.232c0.314,0,0.523,0.103,0.626,0.31
				C200.578,475.385,200.63,475.681,200.63,476.066z M195.901,478.136c0,0.663,0.145,1.163,0.434,1.501
				c0.289,0.34,0.663,0.508,1.121,0.508c0.27,0,0.526-0.072,0.767-0.218c0.243-0.145,0.438-0.364,0.59-0.658
				c0.151-0.293,0.227-0.647,0.227-1.067c0-0.665-0.147-1.185-0.44-1.555c-0.293-0.368-0.679-0.556-1.157-0.556
				c-0.467,0-0.84,0.178-1.122,0.533C196.041,476.978,195.901,477.483,195.901,478.136z"/>
			<path style="fill:#FFFFFF;" d="M203.224,475.774v0.196c0.286-0.378,0.6-0.657,0.941-0.832c0.34-0.178,0.732-0.268,1.174-0.268
				c0.431,0,0.815,0.096,1.154,0.28c0.338,0.189,0.593,0.453,0.758,0.795c0.108,0.2,0.179,0.416,0.21,0.647
				c0.032,0.231,0.048,0.527,0.048,0.887v3.035c0,0.326-0.075,0.575-0.225,0.741c-0.149,0.168-0.343,0.252-0.583,0.252
				c-0.244,0-0.44-0.086-0.591-0.258c-0.152-0.17-0.227-0.416-0.227-0.735v-2.721c0-0.536-0.075-0.949-0.225-1.233
				c-0.15-0.284-0.447-0.428-0.895-0.428c-0.29,0-0.556,0.086-0.794,0.26c-0.24,0.174-0.415,0.412-0.526,0.714
				c-0.08,0.245-0.12,0.697-0.12,1.363v2.045c0,0.33-0.076,0.579-0.23,0.745c-0.153,0.166-0.352,0.248-0.594,0.248
				c-0.236,0-0.429-0.086-0.581-0.258c-0.151-0.17-0.228-0.416-0.228-0.735v-4.718c0-0.31,0.068-0.542,0.203-0.696
				c0.136-0.151,0.321-0.229,0.556-0.229c0.144,0,0.274,0.034,0.39,0.102c0.115,0.068,0.208,0.17,0.278,0.305
				C203.189,475.413,203.224,475.579,203.224,475.774z"/>
			<path style="fill:#FFFFFF;" d="M213.153,478.59h-3.192c0.004,0.371,0.078,0.699,0.224,0.981c0.146,0.283,0.338,0.497,0.58,0.638
				c0.241,0.145,0.507,0.216,0.798,0.216c0.195,0,0.374-0.021,0.536-0.066c0.161-0.048,0.317-0.118,0.469-0.218
				c0.151-0.096,0.29-0.2,0.419-0.314c0.127-0.11,0.292-0.263,0.495-0.454c0.084-0.07,0.204-0.108,0.359-0.108
				c0.168,0,0.303,0.047,0.407,0.139c0.103,0.092,0.155,0.22,0.155,0.39c0,0.147-0.058,0.317-0.173,0.516
				c-0.116,0.198-0.29,0.388-0.523,0.567c-0.233,0.183-0.525,0.332-0.878,0.452c-0.352,0.12-0.758,0.18-1.217,0.18
				c-1.048,0-1.863-0.3-2.445-0.897c-0.581-0.598-0.873-1.409-0.873-2.433c0-0.483,0.072-0.93,0.215-1.342
				c0.144-0.413,0.353-0.766,0.628-1.061c0.275-0.294,0.614-0.522,1.016-0.678c0.403-0.159,0.849-0.237,1.339-0.237
				c0.638,0,1.184,0.134,1.64,0.403c0.457,0.269,0.799,0.618,1.026,1.042c0.227,0.428,0.34,0.863,0.34,1.305
				c0,0.412-0.117,0.678-0.352,0.8C213.911,478.529,213.581,478.59,213.153,478.59z M209.961,477.664h2.959
				c-0.04-0.558-0.19-0.976-0.451-1.252c-0.261-0.279-0.605-0.417-1.032-0.417c-0.407,0-0.741,0.142-1.002,0.421
				C210.175,476.698,210.017,477.112,209.961,477.664z"/>
			<path style="fill:#FFFFFF;" d="M219.807,480.576v-0.162c-0.219,0.25-0.436,0.456-0.648,0.61
				c-0.214,0.158-0.444,0.279-0.693,0.359c-0.249,0.084-0.521,0.124-0.816,0.124c-0.391,0-0.752-0.082-1.085-0.248
				c-0.332-0.166-0.621-0.401-0.863-0.709c-0.244-0.306-0.428-0.666-0.553-1.082c-0.126-0.414-0.188-0.863-0.188-1.345
				c0-1.021,0.248-1.815,0.747-2.386c0.499-0.569,1.154-0.855,1.967-0.855c0.471,0,0.868,0.082,1.189,0.242
				c0.324,0.162,0.638,0.41,0.945,0.744v-2.409c0-0.334,0.067-0.586,0.201-0.76c0.133-0.17,0.324-0.256,0.571-0.256
				c0.248,0,0.438,0.078,0.571,0.236c0.134,0.159,0.2,0.39,0.2,0.697v7.198c0,0.31-0.071,0.542-0.215,0.698
				c-0.143,0.155-0.328,0.233-0.556,0.233c-0.223,0-0.407-0.08-0.553-0.241C219.879,481.104,219.807,480.874,219.807,480.576z
				 M216.596,478.178c0,0.443,0.069,0.819,0.206,1.131c0.137,0.311,0.326,0.544,0.566,0.702c0.239,0.156,0.499,0.236,0.782,0.236
				c0.288,0,0.549-0.074,0.787-0.225c0.237-0.15,0.426-0.378,0.568-0.688c0.141-0.31,0.212-0.695,0.212-1.157
				c0-0.436-0.071-0.81-0.212-1.122c-0.142-0.312-0.333-0.551-0.574-0.717c-0.242-0.164-0.505-0.248-0.793-0.248
				c-0.298,0-0.566,0.086-0.801,0.254c-0.235,0.17-0.418,0.413-0.547,0.729C216.661,477.392,216.596,477.76,216.596,478.178z"/>
			<path style="fill:#FFFFFF;" d="M226.477,473.378v2.491c0.307-0.318,0.62-0.563,0.939-0.73c0.318-0.17,0.713-0.256,1.184-0.256
				c0.542,0,1.017,0.13,1.426,0.386c0.408,0.258,0.725,0.63,0.95,1.118c0.225,0.489,0.338,1.067,0.338,1.737
				c0,0.495-0.063,0.947-0.188,1.359c-0.126,0.413-0.308,0.772-0.547,1.073c-0.24,0.302-0.53,0.537-0.87,0.703
				c-0.341,0.166-0.717,0.248-1.127,0.248c-0.251,0-0.487-0.03-0.709-0.09c-0.221-0.06-0.409-0.138-0.564-0.237
				c-0.155-0.097-0.288-0.196-0.398-0.301c-0.109-0.104-0.254-0.258-0.433-0.466v0.162c0,0.306-0.074,0.538-0.221,0.696
				c-0.147,0.157-0.334,0.235-0.562,0.235c-0.231,0-0.416-0.078-0.553-0.235c-0.138-0.158-0.207-0.391-0.207-0.696v-7.128
				c0-0.33,0.066-0.582,0.2-0.75c0.133-0.17,0.32-0.254,0.559-0.254c0.251,0,0.444,0.08,0.579,0.242
				C226.409,472.849,226.477,473.076,226.477,473.378z M226.556,478.226c0,0.649,0.148,1.149,0.445,1.497
				c0.297,0.35,0.687,0.524,1.169,0.524c0.41,0,0.764-0.179,1.061-0.536c0.296-0.357,0.445-0.868,0.445-1.533
				c0-0.43-0.062-0.802-0.185-1.113c-0.124-0.311-0.299-0.55-0.525-0.72c-0.227-0.168-0.493-0.254-0.795-0.254
				c-0.311,0-0.589,0.086-0.831,0.254c-0.243,0.17-0.435,0.414-0.574,0.735C226.625,477.4,226.556,477.782,226.556,478.226z"/>
			<path style="fill:#FFFFFF;" d="M233.431,481.712l0.149-0.366l-2.009-5.058c-0.123-0.291-0.186-0.503-0.186-0.635
				c0-0.139,0.036-0.267,0.108-0.387c0.073-0.121,0.171-0.216,0.296-0.287c0.125-0.072,0.255-0.108,0.392-0.108
				c0.235,0,0.412,0.074,0.532,0.226c0.12,0.148,0.225,0.362,0.316,0.642l1.381,4.017l1.309-3.736
				c0.104-0.302,0.198-0.538,0.281-0.71c0.084-0.172,0.172-0.287,0.265-0.346c0.094-0.061,0.227-0.092,0.399-0.092
				c0.124,0,0.242,0.032,0.355,0.1c0.114,0.064,0.202,0.154,0.263,0.265c0.062,0.113,0.093,0.229,0.093,0.353
				c-0.017,0.074-0.042,0.184-0.079,0.322c-0.036,0.14-0.079,0.283-0.131,0.426l-2.129,5.571c-0.183,0.491-0.363,0.875-0.538,1.153
				c-0.175,0.279-0.407,0.495-0.696,0.644c-0.29,0.149-0.679,0.224-1.169,0.224c-0.478,0-0.837-0.052-1.076-0.154
				c-0.24-0.105-0.359-0.295-0.359-0.569c0-0.188,0.056-0.332,0.171-0.434c0.113-0.102,0.281-0.152,0.504-0.152
				c0.088,0,0.175,0.011,0.258,0.036c0.103,0.022,0.193,0.036,0.268,0.036c0.188,0,0.335-0.026,0.443-0.084
				c0.107-0.056,0.204-0.152,0.29-0.29C233.221,482.182,233.319,481.978,233.431,481.712z"/>
		</g>
		<g>
			<path style="fill:#FFFFFF;" d="M257.074,475.013h0.391v-0.489c0-0.514,0.063-0.918,0.193-1.22
				c0.127-0.302,0.348-0.52,0.658-0.659c0.309-0.136,0.732-0.204,1.27-0.204c0.957,0,1.432,0.232,1.432,0.701
				c0,0.15-0.051,0.28-0.152,0.387c-0.098,0.107-0.217,0.161-0.352,0.161c-0.063,0-0.174-0.012-0.332-0.036
				c-0.148-0.021-0.283-0.037-0.392-0.037c-0.293,0-0.48,0.09-0.568,0.262c-0.08,0.174-0.123,0.422-0.123,0.747v0.388h0.398
				c0.623,0,0.932,0.186,0.932,0.564c0,0.262-0.08,0.434-0.248,0.506c-0.164,0.071-0.393,0.107-0.684,0.107h-0.398v4.324
				c0,0.323-0.076,0.567-0.232,0.735c-0.152,0.172-0.35,0.256-0.594,0.256c-0.23,0-0.422-0.084-0.578-0.256
				c-0.154-0.168-0.229-0.412-0.229-0.735v-4.324h-0.449c-0.246,0-0.43-0.054-0.563-0.164c-0.133-0.107-0.197-0.252-0.197-0.428
				C256.256,475.207,256.527,475.013,257.074,475.013"/>
			<path style="fill:#FFFFFF;" d="M262.42,479.149v1.365c0,0.33-0.084,0.579-0.236,0.743c-0.154,0.168-0.352,0.248-0.59,0.248
				c-0.24,0-0.434-0.082-0.584-0.252c-0.148-0.166-0.227-0.413-0.227-0.739v-4.546c0-0.733,0.264-1.1,0.793-1.1
				c0.273,0,0.467,0.084,0.59,0.256c0.117,0.172,0.184,0.424,0.197,0.76c0.195-0.336,0.395-0.588,0.598-0.76
				c0.209-0.172,0.48-0.256,0.824-0.256c0.346,0,0.676,0.084,0.998,0.256c0.324,0.172,0.486,0.401,0.486,0.684
				c0,0.196-0.07,0.364-0.207,0.49c-0.137,0.132-0.285,0.197-0.443,0.197c-0.064,0-0.209-0.038-0.435-0.113
				c-0.23-0.07-0.434-0.108-0.607-0.108c-0.238,0-0.436,0.064-0.586,0.188c-0.152,0.129-0.271,0.313-0.354,0.559
				c-0.082,0.248-0.139,0.545-0.174,0.885C262.432,478.245,262.42,478.661,262.42,479.149"/>
			<path style="fill:#FFFFFF;" d="M269.922,478.589h-3.193c0.006,0.37,0.078,0.7,0.223,0.98c0.148,0.281,0.34,0.497,0.582,0.64
				c0.242,0.143,0.506,0.216,0.801,0.216c0.193,0,0.371-0.021,0.533-0.07c0.16-0.044,0.316-0.116,0.469-0.216
				c0.152-0.096,0.289-0.2,0.418-0.315c0.127-0.108,0.293-0.261,0.498-0.452c0.084-0.07,0.205-0.108,0.357-0.108
				c0.168,0,0.303,0.047,0.408,0.139c0.105,0.094,0.154,0.222,0.154,0.39c0,0.148-0.057,0.319-0.168,0.516
				c-0.119,0.2-0.291,0.388-0.527,0.569c-0.236,0.181-0.527,0.332-0.881,0.45c-0.352,0.12-0.758,0.18-1.215,0.18
				c-1.051,0-1.865-0.298-2.447-0.895c-0.58-0.598-0.875-1.411-0.875-2.435c0-0.482,0.074-0.93,0.219-1.342
				c0.141-0.415,0.35-0.768,0.629-1.064c0.273-0.296,0.609-0.522,1.016-0.678c0.4-0.159,0.848-0.237,1.338-0.237
				c0.637,0,1.184,0.136,1.642,0.407c0.453,0.265,0.801,0.614,1.025,1.042c0.227,0.428,0.34,0.861,0.34,1.306
				c0,0.407-0.119,0.673-0.353,0.797C270.68,478.529,270.35,478.589,269.922,478.589 M266.728,477.66h2.959
				c-0.039-0.558-0.188-0.976-0.449-1.25c-0.264-0.277-0.603-0.415-1.033-0.415c-0.406,0-0.74,0.138-1.002,0.421
				C266.943,476.696,266.783,477.11,266.728,477.66"/>
			<path style="fill:#FFFFFF;" d="M276.711,478.589h-3.191c0.004,0.37,0.078,0.7,0.223,0.98c0.147,0.281,0.34,0.497,0.58,0.64
				c0.24,0.143,0.508,0.216,0.801,0.216c0.193,0,0.373-0.021,0.531-0.07c0.162-0.044,0.318-0.116,0.471-0.216
				c0.154-0.096,0.291-0.2,0.418-0.315c0.125-0.108,0.295-0.261,0.498-0.452c0.084-0.07,0.205-0.108,0.357-0.108
				c0.168,0,0.303,0.047,0.41,0.139c0.102,0.094,0.15,0.222,0.15,0.39c0,0.148-0.057,0.319-0.172,0.516
				c-0.111,0.2-0.287,0.388-0.523,0.569c-0.232,0.181-0.527,0.332-0.879,0.45c-0.35,0.12-0.76,0.18-1.217,0.18
				c-1.051,0-1.861-0.298-2.447-0.895c-0.58-0.598-0.873-1.411-0.873-2.435c0-0.482,0.072-0.93,0.219-1.342
				c0.143-0.415,0.352-0.768,0.627-1.064s0.613-0.522,1.016-0.678c0.402-0.159,0.851-0.237,1.34-0.237
				c0.637,0,1.184,0.136,1.645,0.407c0.453,0.265,0.797,0.614,1.021,1.042c0.227,0.428,0.342,0.861,0.342,1.306
				c0,0.407-0.119,0.673-0.352,0.797C277.469,478.529,277.137,478.589,276.711,478.589 M273.52,477.66h2.959
				c-0.041-0.558-0.191-0.976-0.449-1.25c-0.266-0.277-0.605-0.415-1.035-0.415c-0.406,0-0.74,0.138-1.004,0.421
				C273.732,476.696,273.572,477.11,273.52,477.66"/>
			<path style="fill:#FFFFFF;" d="M280.287,475.787v0.195c0.307-0.378,0.627-0.657,0.961-0.835c0.326-0.179,0.703-0.269,1.121-0.269
				c0.5,0,0.967,0.132,1.389,0.39c0.424,0.259,0.756,0.64,1,1.138c0.246,0.5,0.371,1.088,0.371,1.77
				c0,0.502-0.072,0.964-0.213,1.387c-0.141,0.42-0.338,0.772-0.586,1.058c-0.246,0.282-0.537,0.504-0.873,0.656
				c-0.342,0.153-0.699,0.229-1.088,0.229c-0.465,0-0.857-0.094-1.174-0.281c-0.316-0.183-0.619-0.462-0.908-0.82v2.449
				c0,0.714-0.262,1.075-0.783,1.075c-0.309,0-0.508-0.092-0.611-0.277c-0.096-0.187-0.146-0.454-0.146-0.812v-7.045
				c0-0.311,0.066-0.542,0.201-0.698c0.135-0.149,0.322-0.228,0.557-0.228c0.232,0,0.42,0.078,0.564,0.234
				C280.217,475.263,280.287,475.487,280.287,475.787 M283.488,478.159c0-0.432-0.066-0.803-0.199-1.111
				c-0.131-0.31-0.313-0.546-0.543-0.709c-0.232-0.166-0.494-0.25-0.777-0.25c-0.449,0-0.83,0.178-1.137,0.531
				c-0.311,0.357-0.467,0.878-0.467,1.569c0,0.647,0.154,1.155,0.463,1.514c0.307,0.363,0.684,0.542,1.141,0.542
				c0.27,0,0.523-0.08,0.754-0.234c0.234-0.16,0.418-0.396,0.557-0.71C283.418,478.985,283.488,478.603,283.488,478.159"/>
			<path style="fill:#FFFFFF;" d="M286.771,474.109c-0.228,0-0.422-0.072-0.582-0.212c-0.164-0.14-0.244-0.334-0.244-0.588
				c0-0.233,0.084-0.422,0.25-0.575c0.166-0.147,0.357-0.224,0.576-0.224c0.215,0,0.398,0.067,0.563,0.201
				c0.162,0.137,0.246,0.338,0.246,0.598c0,0.25-0.08,0.446-0.238,0.588C287.182,474.037,286.992,474.109,286.771,474.109
				 M287.58,475.795v4.722c0,0.324-0.078,0.571-0.234,0.737c-0.156,0.17-0.352,0.252-0.592,0.252c-0.24,0-0.432-0.084-0.584-0.256
				c-0.148-0.174-0.225-0.418-0.225-0.733v-4.676c0-0.32,0.076-0.563,0.225-0.727c0.152-0.164,0.344-0.244,0.584-0.244
				c0.24,0,0.436,0.08,0.592,0.244C287.502,475.277,287.58,475.507,287.58,475.795"/>
			<path style="fill:#FFFFFF;" d="M292.842,480.761l-1.438-2.371l-0.887,0.836v1.303c0,0.313-0.084,0.554-0.25,0.722
				c-0.162,0.172-0.355,0.256-0.57,0.256c-0.25,0-0.449-0.082-0.592-0.252c-0.145-0.166-0.217-0.413-0.217-0.739v-6.963
				c0-0.361,0.072-0.638,0.209-0.827c0.141-0.192,0.342-0.284,0.6-0.284c0.25,0,0.449,0.086,0.598,0.258
				c0.148,0.172,0.223,0.424,0.223,0.758v3.962l1.836-1.929c0.227-0.236,0.399-0.402,0.52-0.49c0.119-0.088,0.264-0.13,0.434-0.13
				c0.205,0,0.373,0.064,0.514,0.192c0.133,0.13,0.201,0.295,0.201,0.487c0,0.238-0.221,0.56-0.662,0.958l-0.867,0.795l1.674,2.633
				c0.121,0.196,0.213,0.342,0.266,0.444c0.053,0.102,0.082,0.201,0.082,0.291c0,0.259-0.072,0.462-0.215,0.614
				c-0.141,0.149-0.328,0.222-0.557,0.222c-0.199,0-0.355-0.05-0.463-0.16C293.172,481.236,293.023,481.042,292.842,480.761"/>
			<path style="fill:#FFFFFF;" d="M296.389,481.506c-0.248,0-0.459-0.078-0.637-0.239c-0.18-0.156-0.272-0.382-0.272-0.67
				c0-0.242,0.088-0.452,0.258-0.626c0.174-0.176,0.383-0.266,0.635-0.266c0.25,0,0.463,0.09,0.645,0.26
				c0.176,0.174,0.266,0.388,0.266,0.632c0,0.285-0.09,0.508-0.266,0.667C296.836,481.428,296.627,481.506,296.389,481.506"/>
			<path style="fill:#FFFFFF;" d="M304.508,479.485c0,0.203-0.06,0.42-0.184,0.651c-0.119,0.233-0.307,0.452-0.557,0.661
				c-0.25,0.21-0.563,0.38-0.941,0.506c-0.379,0.128-0.807,0.192-1.279,0.192c-1.01,0-1.797-0.296-2.365-0.882
				c-0.563-0.588-0.846-1.377-0.846-2.366c0-0.672,0.129-1.262,0.389-1.777c0.258-0.514,0.633-0.91,1.121-1.193
				c0.492-0.28,1.082-0.422,1.76-0.422c0.424,0,0.81,0.061,1.166,0.185c0.352,0.124,0.65,0.284,0.897,0.48
				c0.244,0.198,0.432,0.404,0.559,0.624c0.131,0.222,0.195,0.428,0.195,0.62c0,0.195-0.072,0.361-0.217,0.497
				c-0.146,0.136-0.324,0.204-0.527,0.204c-0.137,0-0.25-0.036-0.34-0.105c-0.092-0.07-0.191-0.181-0.301-0.34
				c-0.201-0.302-0.408-0.53-0.627-0.682c-0.217-0.15-0.492-0.227-0.828-0.227c-0.479,0-0.871,0.186-1.166,0.564
				c-0.295,0.375-0.443,0.894-0.443,1.545c0,0.308,0.039,0.592,0.115,0.85c0.074,0.256,0.184,0.476,0.328,0.655
				c0.145,0.181,0.316,0.318,0.52,0.412c0.203,0.098,0.43,0.143,0.67,0.143c0.328,0,0.609-0.077,0.84-0.228
				c0.238-0.15,0.443-0.384,0.623-0.693c0.098-0.183,0.205-0.326,0.32-0.432c0.113-0.103,0.256-0.156,0.424-0.156
				c0.199,0,0.365,0.076,0.494,0.229C304.439,479.153,304.508,479.315,304.508,479.485"/>
			<path style="fill:#FFFFFF;" d="M311.551,478.19c0,0.484-0.076,0.933-0.223,1.346c-0.156,0.411-0.373,0.764-0.66,1.056
				c-0.287,0.296-0.631,0.522-1.029,0.68c-0.402,0.157-0.848,0.237-1.346,0.237c-0.494,0-0.94-0.08-1.334-0.241
				c-0.393-0.156-0.738-0.387-1.024-0.682c-0.291-0.299-0.51-0.65-0.662-1.056c-0.145-0.404-0.221-0.852-0.221-1.34
				c0-0.496,0.078-0.949,0.225-1.359c0.152-0.411,0.371-0.764,0.654-1.052c0.285-0.291,0.625-0.516,1.027-0.675
				c0.406-0.156,0.85-0.234,1.334-0.234c0.494,0,0.943,0.078,1.346,0.238c0.404,0.159,0.746,0.388,1.037,0.68
				c0.287,0.3,0.504,0.649,0.652,1.055C311.477,477.25,311.551,477.696,311.551,478.19 M309.912,478.19
				c0-0.666-0.146-1.184-0.438-1.555c-0.293-0.374-0.688-0.559-1.182-0.559c-0.318,0-0.6,0.084-0.844,0.248
				c-0.244,0.164-0.43,0.408-0.56,0.733c-0.131,0.322-0.199,0.7-0.199,1.132c0,0.426,0.064,0.798,0.195,1.117
				c0.131,0.32,0.314,0.563,0.559,0.732c0.242,0.168,0.523,0.254,0.85,0.254c0.494,0,0.889-0.187,1.182-0.561
				C309.766,479.361,309.912,478.844,309.912,478.19"/>
			<path style="fill:#FFFFFF;" d="M317.779,478.308v2.171c0,0.344-0.078,0.598-0.232,0.772c-0.158,0.172-0.361,0.258-0.617,0.258
				c-0.248,0-0.449-0.086-0.598-0.258c-0.156-0.174-0.234-0.428-0.234-0.772v-2.601c0-0.412-0.014-0.731-0.041-0.96
				c-0.027-0.222-0.105-0.413-0.227-0.556c-0.125-0.147-0.32-0.222-0.588-0.222c-0.533,0-0.885,0.184-1.053,0.556
				c-0.17,0.361-0.256,0.89-0.256,1.577v2.205c0,0.338-0.078,0.596-0.229,0.77c-0.156,0.172-0.357,0.26-0.607,0.26
				c-0.248,0-0.451-0.088-0.607-0.26c-0.158-0.174-0.238-0.432-0.238-0.77v-4.67c0-0.308,0.07-0.542,0.213-0.701
				c0.143-0.16,0.33-0.238,0.559-0.238c0.225,0,0.41,0.076,0.561,0.224c0.15,0.148,0.223,0.356,0.223,0.618v0.155
				c0.285-0.339,0.59-0.587,0.91-0.743c0.324-0.164,0.682-0.244,1.078-0.244c0.41,0,0.762,0.084,1.057,0.246
				c0.295,0.164,0.537,0.412,0.73,0.741c0.277-0.333,0.572-0.581,0.887-0.743c0.314-0.162,0.664-0.244,1.047-0.244
				c0.443,0,0.83,0.09,1.154,0.265c0.32,0.174,0.563,0.428,0.723,0.753c0.137,0.298,0.207,0.762,0.207,1.395v3.186
				c0,0.344-0.076,0.598-0.232,0.772c-0.154,0.172-0.359,0.258-0.615,0.258c-0.248,0-0.449-0.088-0.608-0.26
				c-0.156-0.174-0.236-0.432-0.236-0.77v-2.745c0-0.352-0.016-0.633-0.043-0.843c-0.031-0.212-0.113-0.391-0.242-0.534
				c-0.133-0.142-0.334-0.216-0.6-0.216c-0.215,0-0.42,0.068-0.613,0.194c-0.193,0.125-0.344,0.3-0.453,0.512
				C317.84,477.122,317.779,477.61,317.779,478.308"/>
		</g>
		<g>
			<path style="fill:#FFFFFF;" d="M241.798,477.794c-0.001-0.004-0.001-0.008-0.001-0.012
				C241.797,477.786,241.797,477.79,241.798,477.794z"/>
			<path style="fill:#FFFFFF;" d="M241.881,478.315c0.001,0,0.001,0,0.003,0c-0.032-0.149-0.057-0.296-0.075-0.443
				C241.828,478.022,241.852,478.168,241.881,478.315z"/>
			<path style="fill:#FFFFFF;" d="M242.422,479.831c-0.004-0.008-0.008-0.015-0.011-0.021
				C242.415,479.816,242.418,479.823,242.422,479.831z"/>
			<path style="fill:#FFFFFF;" d="M242.371,479.73c-0.015-0.029-0.028-0.058-0.042-0.086
				C242.342,479.675,242.356,479.701,242.371,479.73z"/>
			<path style="fill:#FFFFFF;" d="M242.034,478.897c0.079,0.252,0.176,0.498,0.288,0.73c-0.115-0.236-0.209-0.482-0.287-0.73
				H242.034z"/>
			<path style="fill:#FFFFFF;" d="M248.118,471.539c0.316,0,0.548,0.025,0.815,0.071l0.075-0.482c0,0-0.737-0.228-1.706-0.147
				l-0.076-0.261c0.302-0.064,0.528-0.333,0.528-0.651c0-0.367-0.299-0.663-0.666-0.663s-0.665,0.296-0.665,0.663
				c0,0.318,0.226,0.588,0.526,0.651l0.084,0.292c-1.028,0.141-1.848,0.542-1.848,0.542l0.145,0.442
				c0.623-0.206,1.162-0.332,1.652-0.385C247.461,471.563,247.824,471.539,248.118,471.539z"/>
			<path style="fill:#FFFFFF;" d="M242.41,473.968l0.004-0.006c0.023-0.03,0.047-0.059,0.071-0.09l-0.198-0.141l-0.306-0.226
				c-0.018,0.024-0.501,0.47-0.883,1.291c-0.017-0.027-0.034-0.052-0.057-0.077c-0.114-0.124-0.274-0.188-0.477-0.185
				c-0.003,0-0.006,0-0.01,0c-0.125,0-0.212-0.042-0.269-0.092c0.057-0.07,0.09-0.16,0.09-0.262c0-0.23-0.188-0.42-0.422-0.42
				c-0.231,0-0.42,0.19-0.42,0.42c0,0.235,0.188,0.422,0.42,0.422c0.037,0,0.071-0.006,0.106-0.013
				c0.103,0.116,0.268,0.215,0.508,0.21c0.123,0,0.214,0.03,0.275,0.099c0.07,0.076,0.094,0.186,0.102,0.27c0,0,0,0.002-0.002,0.002
				c-0.274,0.748-0.196,1.68-0.196,1.68l0.666,0.027c0.015-0.338,0.061-0.932,0.233-1.403
				C241.977,474.561,242.392,473.993,242.41,473.968z"/>
			<path style="fill:#FFFFFF;" d="M253.908,472.095c-0.232,0-0.42,0.19-0.42,0.422c0,0.036,0.004,0.071,0.014,0.103
				c-0.115,0.105-0.217,0.27-0.213,0.51c0.002,0.124-0.029,0.214-0.096,0.274c-0.053,0.048-0.121,0.073-0.188,0.09
				c-0.494-0.694-1.104-1.118-1.104-1.118l-0.479,0.512c0.361,0.328,0.73,0.74,1.088,1.252c0.248,0.358,0.502,0.814,0.715,1.27
				l0.645-0.306c0,0-0.293-0.728-0.709-1.38c0.072-0.025,0.145-0.065,0.209-0.122c0.125-0.113,0.188-0.273,0.184-0.476
				c0-0.132,0.043-0.22,0.094-0.279c0.072,0.056,0.162,0.09,0.26,0.09c0.232,0,0.422-0.186,0.422-0.42
				C254.33,472.284,254.141,472.095,253.908,472.095z"/>
			<path style="fill:#FFFFFF;" d="M252.236,477.888c-0.889,0.432-2.348,1.004-4.269,1.272c-0.755,0.105-1.484,0.143-2.158,0.143
				c-0.875,0-1.65-0.065-2.242-0.142c-0.677-0.084-1.208-0.189-1.532-0.264c0.078,0.248,0.172,0.493,0.287,0.73
				c0.001,0.006,0.004,0.014,0.007,0.017c0.014,0.028,0.027,0.057,0.042,0.086c0.014,0.026,0.027,0.053,0.041,0.08
				c0.003,0.006,0.007,0.013,0.011,0.021c0.19,0.359,0.419,0.688,0.68,0.974c0.906,0.991,1.83,1.149,1.838,1.149l0.016,0.002
				l0.013,0.004c0.009,0.004,0.828,0.27,2.072,0.27c1.225,0,2.426-0.248,3.571-0.735c0.848-0.436,1.65-1.094,2.049-1.68
				c0.307-0.457,0.529-0.94,0.662-1.443c0.07-0.27,0.125-0.699,0.092-1.151C253.164,477.39,252.77,477.628,252.236,477.888z"/>
			<path style="fill:#FFFFFF;" d="M242.694,474.178c-0.026,0.038-0.411,0.583-0.714,1.419c-0.229,0.626-0.218,1.537-0.218,1.548
				v0.002c0,0.214,0.012,0.426,0.035,0.636c0,0.004,0,0.008,0.001,0.012c0.003,0.027,0.008,0.052,0.011,0.078
				c0.018,0.147,0.043,0.294,0.075,0.443c0.439,0.112,3.069,0.726,6.009,0.316c1.843-0.258,3.242-0.802,4.091-1.214
				c0.707-0.342,1.16-0.651,1.336-0.779c-0.176-0.647-0.656-1.663-1.098-2.295c-1.264-1.804-2.623-2.266-3.322-2.383
				c-0.267-0.042-0.48-0.068-0.783-0.068c-0.281,0-0.631,0.024-1.097,0.072c-0.468,0.05-0.989,0.172-1.595,0.376
				c-0.849,0.285-1.615,0.73-2.22,1.289l-0.021,0.02C243.095,473.731,242.91,473.905,242.694,474.178z M250.418,473.758
				c0.605,0,1.098,0.493,1.098,1.098c0,0.605-0.492,1.098-1.098,1.098c-0.605,0-1.096-0.492-1.096-1.098
				C249.322,474.251,249.813,473.758,250.418,473.758z M245.231,473.714c0.978,0,1.772,0.794,1.772,1.773s-0.794,1.772-1.772,1.772
				c-0.98,0-1.774-0.793-1.774-1.772S244.251,473.714,245.231,473.714z"/>
		</g>
	</g>
</g>
</svg>
